<svg xmlns="http://www.w3.org/2000/svg" width="64" height="64" viewBox="0 0 64 64" fill="none">
	<rect width="64" height="64" rx="16" fill="#F8FAFC"/>
	<path d="M19 48V22.5C19 20.567 20.567 19 22.5 19H41.5C43.433 19 45 20.567 45 22.5V48H19Z" fill="#FFFBE8" stroke="#0EA5E9" stroke-width="2"/>
	<path d="M24 19V15.5C24 14.1193 25.1193 13 26.5 13H37.5C38.8807 13 40 14.1193 40 15.5V19" stroke="#1E293B" stroke-width="2" stroke-linecap="round"/>
	<path d="M27 27H37" stroke="#0EA5E9" stroke-width="2.2" stroke-linecap="round"/>
	<path d="M25 48V31H39V48" fill="#E0F2FE"/>
	<path d="M22 48H42" stroke="#1E293B" stroke-width="2" stroke-linecap="round"/>
	<circle cx="24.5" cy="50" r="2" fill="#1E293B"/>
	<circle cx="39.5" cy="50" r="2" fill="#1E293B"/>
	<path d="M27 31C27 29.3431 28.3431 28 30 28H34C35.6569 28 37 29.3431 37 31V36H27V31Z" fill="#FFFFFF" stroke="#93C5FD" stroke-width="1.5"/>
	<path d="M30.5 13V8.5C30.5 7.11929 31.6193 6 33 6H34C35.3807 6 36.5 7.11929 36.5 8.5V13" stroke="#1E293B" stroke-width="2" stroke-linecap="round"/>
	<path d="M14 48C16.2 47 18 45.2 19 42.8" stroke="#0EA5E9" stroke-width="2" stroke-linecap="round" opacity="0.55"/>
	<path d="M45 42.8C46 45.2 47.8 47 50 48" stroke="#0EA5E9" stroke-width="2" stroke-linecap="round" opacity="0.55"/>
</svg>